<svg xmlns="http://www.w3.org/2000/svg" enable-background="new 0 0 100 100" viewBox="0 0 100 100"><path d="M83.5,79.2c-0.9,0.4-1.8,1-2.5,1.7s-1.3,1.6-1.7,2.5L66.1,70.3l-2.8,2.8l-6.4,6.4c-0.4,0.4-0.9,0.6-1.4,0.6
	c-0.5,0-1-0.2-1.4-0.6c-0.8-0.8-0.8-2,0-2.8l2.8-2.8l2.8-2.8l-6.9-6.9l4.2-4.2l6.9,6.9l2.8-2.8l-6.9-6.9l4.2-4.2l6.9,6.9l2.8-2.8
	l2.8-2.8c0.8-0.8,2-0.8,2.8,0c0.8,0.8,0.8,2,0,2.8l-6.4,6.4l-2.8,2.8L83.5,79.2z M40.1,42.9L9.4,12.2v8.5l26.5,26.5L40.1,42.9z
	 M47.2,35.9L20.7,9.4h-8.5l30.7,30.7L47.2,35.9z M86.6,82.6c-1.1,0-2.1,0.4-2.8,1.2c-0.8,0.8-1.2,1.8-1.2,2.8s0.4,2.1,1.2,2.8
	c1.6,1.6,4.1,1.6,5.7,0s1.6-4.1,0-5.7C88.7,83,87.7,82.6,86.6,82.6z M38.9,75.3C38.9,75.3,38.9,75.3,38.9,75.3L38.9,75.3
	C38.9,75.3,38.9,75.3,38.9,75.3z M36,66.8L33.2,64L87.8,9.4h-8.5L29,59.7l-2.8-2.8l-2.8-2.8c-0.8-0.8-2-0.8-2.8,0
	c-0.8,0.8-0.8,2,0,2.8l6.4,6.4l2.8,2.8L16.5,79.2c0.9,0.4,1.8,1,2.5,1.7s1.3,1.6,1.7,2.5l13.1-13.1l5,5v0v0l4.2,4.2
	c0.4,0.4,0.9,0.6,1.4,0.6c0.5,0,1-0.2,1.4-0.6c0.8-0.8,0.8-2,0-2.8l-2.8-2.8L40.3,71l50.3-50.3v-8.5L36,66.8z M13.4,82.6
	c-1.1,0-2.1,0.4-2.8,1.2c-1.6,1.6-1.6,4.1,0,5.7s4.1,1.6,5.7,0c0.8-0.8,1.2-1.8,1.2-2.8s-0.4-2.1-1.2-2.8
	C15.5,83,14.5,82.6,13.4,82.6z"/></svg>